<svg xmlns="http://www.w3.org/2000/svg" width="89" height="21" viewBox="0 0 89 21">
  <path fill-rule="evenodd" d="M177.848071,118.176445 C179.491149,117.477155 180.867095,119.258579 179.259352,120.44596 C169.540809,127.614745 155.444964,131.42623 143.309506,131.42623 C126.299936,131.42623 110.987154,125.145332 99.3944416,114.686351 C98.4820914,113.865568 99.2947968,112.741053 100.385942,113.373946 C112.897365,120.650096 128.356434,125.031609 144.329275,125.031609 C155.103628,125.031609 166.949339,122.796705 177.848071,118.176445 Z M171.791937,113.758754 C177.39995,109.758661 186.589197,110.910017 187.65566,112.253024 C188.736371,113.601817 187.374975,122.96092 182.120312,127.420977 C181.311026,128.110199 180.540209,127.742084 180.902108,126.840237 C182.082555,123.839624 184.732683,117.128928 183.475297,115.494466 C182.22361,113.86362 175.190085,114.720628 172.030591,115.107547 C171.075263,115.221815 170.927796,114.374932 171.791937,113.758754 Z" transform="translate(-99 -111)"/>
</svg>
